<?xml version="1.0" encoding="UTF-8"?>
<svg version="1.1" xmlns="http://www.w3.org/2000/svg" width="1103" height="1500">
<path d="M0 0 C363.99 0 727.98 0 1103 0 C1103 495 1103 990 1103 1500 C739.01 1500 375.02 1500 0 1500 C0 1005 0 510 0 0 Z " fill="#050608" transform="translate(0,0)"/>
<path d="M0 0 C14.4375 -0.04125 28.875 -0.0825 43.75 -0.125 C48.28717773 -0.14320801 52.82435547 -0.16141602 57.49902344 -0.18017578 C63.09423828 -0.18920898 63.09423828 -0.18920898 65.72418213 -0.19088745 C67.53783147 -0.19393295 69.35147709 -0.20091302 71.1651001 -0.21115112 C89.50829446 -0.30940906 107.24734316 0.59369017 122 13 C129.00293738 20.2536018 132.49098936 29.18926019 132.49804688 39.2109375 C132.47806641 40.13132812 132.45808594 41.05171875 132.4375 42 C132.44458984 42.92039062 132.45167969 43.84078125 132.45898438 44.7890625 C132.35612114 56.02489271 129.03961284 66.84055357 121.03125 75.0078125 C113.48671565 81.32225973 104.91153738 85.40783134 95 85 C95.3403125 85.60545654 95.680625 86.21091309 96.03125 86.8347168 C97.68863649 89.785008 99.34454826 92.73612272 101 95.6875 C101.6192334 96.79134033 102.2384668 97.89518066 102.87646484 99.0324707 C106.39375632 105.30978741 109.88785533 111.59919607 113.3515625 117.90625 C113.70941833 118.55737259 114.06727417 119.20849518 114.43597412 119.87934875 C116.18352164 123.05981088 117.92799351 126.24190275 119.66796875 129.42651367 C120.31239964 130.60080378 120.95692628 131.77504135 121.6015625 132.94921875 C122.16182129 133.97362061 122.72208008 134.99802246 123.29931641 136.0534668 C125.00891273 139.09902649 125.00891273 139.09902649 127.21240234 142.25317383 C129 145 129 145 129 147 C111.17697712 148.62481976 111.17697712 148.62481976 106.58203125 145.1953125 C105.06124849 142.5286178 104.04162482 139.88624769 103 137 C101.86761705 135.02164477 100.69939208 133.0634631 99.5 131.125 C97.31196052 127.36933916 95.27066805 123.59802481 93.375 119.6875 C89.74347663 112.23541507 85.5559737 105.0933898 81.40576172 97.9206543 C80.85291504 96.95683838 80.30006836 95.99302246 79.73046875 95 C79.22926514 94.13375 78.72806152 93.2675 78.21166992 92.375 C77 90 77 90 76 86 C56.53 86 37.06 86 17 86 C17 106.13 17 126.26 17 147 C11.39 147 5.78 147 0 147 C0 98.49 0 49.98 0 0 Z " fill="#FCFCFC" transform="translate(677,1091)"/>
<path d="M0 0 C0.82242188 0.68707031 1.64484375 1.37414063 2.4921875 2.08203125 C3.57113281 2.97341797 3.57113281 2.97341797 4.671875 3.8828125 C16.14825185 14.30979302 21.17154232 28.61128454 22.90234375 43.64453125 C23.57110593 58.7345497 17.63199033 73.45622067 8.08984375 84.984375 C-3.04974278 96.90913062 -17.35315349 104.52184439 -33.7890625 105.45703125 C-52.45882905 106.07334918 -67.46071618 102.12933105 -81.8828125 89.64453125 C-93.84972353 78.30947313 -100.37420934 64.66533067 -100.96386719 48.1706543 C-101.22806299 30.72932778 -96.2062647 17.21586288 -83.984375 4.4453125 C-61.01977141 -16.92943392 -25.0858924 -19.59608116 0 0 Z " fill="#050708" transform="translate(592.5078125,1117.91796875)"/>
<path d="M0 0 C14.8190625 -0.061875 14.8190625 -0.061875 29.9375 -0.125 C33.04019287 -0.14320801 36.14288574 -0.16141602 39.33959961 -0.18017578 C41.8188459 -0.18602101 44.29809412 -0.1911165 46.77734375 -0.1953125 C48.68392761 -0.2106604 48.68392761 -0.2106604 50.62902832 -0.22631836 C64.97899201 -0.22912136 77.00476698 3.05741381 87.8125 13.0625 C98.16586618 24.30872528 105.09127991 39.84346644 105.5 55.1875 C104.73458823 72.12223542 98.28737339 88.46709973 86.06640625 100.43359375 C74.41237107 110.18735313 61.65343734 112.31380123 46.875 112.1953125 C45.68390625 112.19329834 44.4928125 112.19128418 43.265625 112.18920898 C38.84371046 112.17879587 34.4218511 112.15087351 30 112.125 C20.1 112.08375 10.2 112.0425 0 112 C0 75.04 0 38.08 0 0 Z " fill="#050608" transform="translate(695,909)"/>
<path d="M0 0 C12.560625 -0.061875 25.12125 -0.12375 38.0625 -0.1875 C41.99808838 -0.21481201 45.93367676 -0.24212402 49.98852539 -0.27026367 C54.87194824 -0.28381348 54.87194824 -0.28381348 57.17308044 -0.28633118 C58.74744731 -0.29087548 60.32180513 -0.30129327 61.89610291 -0.31672668 C83.27780092 -0.51547926 102.21645619 3.13386739 118.40625 18.24609375 C133.7647399 34.26205325 140.54446859 55.3279025 140.28295898 77.22338867 C139.70147887 98.97251363 131.4868619 117.86813779 116 133 C101.02239079 146.64131694 81.018221 148.63387201 61.71875 148.390625 C60.12663335 148.38472224 58.53450884 148.3806549 56.94238281 148.37841797 C51.12813456 148.3576968 45.31405395 148.30185384 39.5 148.25 C19.9475 148.12625 19.9475 148.12625 0 148 C0 99.16 0 50.32 0 0 Z M18 18 C18 54.96 18 91.92 18 130 C32.6953125 130.12375 32.6953125 130.12375 47.6875 130.25 C50.75377686 130.28641602 53.82005371 130.32283203 56.97924805 130.36035156 C59.44839786 130.37204957 61.91755547 130.38223875 64.38671875 130.390625 C66.26260681 130.4213208 66.26260681 130.4213208 68.1763916 130.45263672 C82.28672112 130.45815126 95.19715474 126.53525902 105.6875 116.8125 C117.4881127 104.12337058 123.65751033 87.01947113 123.37890625 69.8203125 C121.82710109 54.17427696 114.38033367 39.73865648 103 29 C93.90512601 21.69582658 84.40824328 17.86222356 72.71923828 17.88647461 C71.48149658 17.88659546 70.24375488 17.88671631 68.96850586 17.88684082 C67.68210205 17.89195679 66.39569824 17.89707275 65.0703125 17.90234375 C63.87720459 17.90335083 62.68409668 17.90435791 61.45483398 17.90539551 C57.01154617 17.91061494 52.56827209 17.9245762 48.125 17.9375 C38.18375 17.958125 28.2425 17.97875 18 18 Z " fill="#F9F9F9" transform="translate(677,891)"/>
<path d="M0 0 C39.93 0 79.86 0 121 0 C121 5.61 121 11.22 121 17 C86.68 17 52.36 17 17 17 C17 31.85 17 46.7 17 62 C51.65 62 86.3 62 122 62 C122 67.94 122 73.88 122 80 C87.35 80 52.7 80 17 80 C17 96.5 17 113 17 130 C51.98 130 86.96 130 123 130 C123 135.61 123 141.22 123 147 C121.36907514 148.63092486 119.54414365 148.12603002 117.29284668 148.12698364 C115.76578346 148.13121338 115.76578346 148.13121338 114.20787048 148.13552856 C112.51846092 148.13249222 112.51846092 148.13249222 110.79492188 148.12939453 C109.6162001 148.13114685 108.43747833 148.13289917 107.22303772 148.13470459 C103.98138392 148.13836267 100.73977067 148.13748974 97.49811745 148.1343255 C94.11263567 148.13180144 90.72715668 148.13413957 87.3416748 148.13571167 C81.65534984 148.13753323 75.96903784 148.13512741 70.28271484 148.13037109 C63.69971982 148.1249285 57.11675577 148.12669116 50.5337615 148.1321975 C44.89130687 148.13672901 39.24886159 148.13737899 33.60640574 148.13475883 C30.23222248 148.13319627 26.85805379 148.13300172 23.48387146 148.13629532 C19.72425204 148.13882012 15.96469302 148.13498368 12.20507812 148.12939453 C11.07880508 148.13141876 9.95253204 148.13344299 8.79212952 148.13552856 C7.77408737 148.13270874 6.75604523 148.12988892 5.70715332 148.12698364 C4.81707832 148.12660662 3.92700333 148.12622959 3.00995636 148.12584114 C1 148 1 148 0 147 C-0.0965683 145.10171764 -0.12187216 143.19979337 -0.12025452 141.29905701 C-0.12162918 140.0608017 -0.12300385 138.82254639 -0.12442017 137.54676819 C-0.12088056 136.16195655 -0.11724574 134.77714515 -0.11352539 133.39233398 C-0.11324352 131.94392906 -0.11340124 130.49552399 -0.1139679 129.04711914 C-0.11425589 125.10307686 -0.1083588 121.15906473 -0.10139394 117.21502948 C-0.09516078 113.09770531 -0.09455663 108.98038052 -0.09336853 104.86305237 C-0.0902551 97.06094138 -0.08204156 89.25884433 -0.07201904 81.45673949 C-0.05877312 70.91754265 -0.05335809 60.37834204 -0.04751682 49.83913898 C-0.03810168 33.22608221 -0.01818284 16.61305485 0 0 Z " fill="#F6F7F7" transform="translate(858,692)"/>
<path d="M0 0 C5.94 0 11.88 0 18 0 C23.55099674 11.01496778 28.93935183 22.08813338 34.1875 33.25 C34.93393792 34.8341767 35.68043967 36.41832332 36.42700195 38.00244141 C41.93117628 49.69037823 47.38551597 61.40101856 52.8125 73.125 C55.05270785 77.9629551 57.30342748 82.79583726 59.5625 87.625 C59.86207108 88.26548279 60.16164215 88.90596558 60.47029114 89.56585693 C61.07529071 90.85929658 61.6802966 92.15273327 62.28530884 93.44616699 C62.58303192 94.08268188 62.880755 94.71919678 63.1875 95.375 C63.48208099 96.00474731 63.77666199 96.63449463 64.08016968 97.2833252 C68.35772638 106.43214557 72.56639156 115.61013399 76.71313477 124.8190918 C79.32362963 130.59178121 82.07140765 136.25627465 85.0390625 141.85546875 C86 144 86 144 86 147 C79.73 147 73.46 147 67 147 C61.32117641 135.74467397 55.84309295 124.41786895 50.5 113 C48.025 107.72 45.55 102.44 43 97 C19.9 97 -3.2 97 -27 97 C-29.330625 101.95 -31.66125 106.9 -34.0625 112 C-35.14156616 114.28744141 -35.14156616 114.28744141 -36.24243164 116.62109375 C-39.89694202 124.39080267 -43.44881276 132.19322237 -46.82691956 140.08764648 C-48.89742576 144.89742576 -48.89742576 144.89742576 -50 146 C-51.41570123 146.08651611 -52.835595 146.10704904 -54.25390625 146.09765625 C-55.10791016 146.09443359 -55.96191406 146.09121094 -56.84179688 146.08789062 C-57.73962891 146.07951172 -58.63746094 146.07113281 -59.5625 146.0625 C-60.46419922 146.05798828 -61.36589844 146.05347656 -62.29492188 146.04882812 C-64.53001314 146.03700225 -66.76497437 146.0205222 -69 146 C-66.71106077 138.19523353 -63.2736713 131.08395081 -59.67987061 123.82043457 C-57.86243949 120.14561263 -56.06433018 116.46135861 -54.265625 112.77734375 C-53.90193817 112.03324249 -53.53825134 111.28914124 -53.1635437 110.52249146 C-49.80781035 103.64046448 -46.5754316 96.70570438 -43.375 89.75 C-38.69212882 79.582247 -33.8783474 69.48729793 -28.98547363 59.41970825 C-24.92347337 51.05632883 -20.96960535 42.65292781 -17.125 34.1875 C-14.03493474 27.38689468 -10.90297782 20.61924835 -7.5625 13.9375 C-7.25650879 13.32479248 -6.95051758 12.71208496 -6.63525391 12.08081055 C-4.55056547 7.96282903 -2.2963814 4.01866745 0 0 Z " fill="#FBFBFB" transform="translate(546,892)"/>
<path d="M0 0 C-1.34929464 3.83663072 -3.07751025 6.65172569 -5.625 9.8125 C-6.25664062 10.60269531 -6.88828125 11.39289062 -7.5390625 12.20703125 C-8.02117187 12.79871094 -8.50328125 13.39039063 -9 14 C-13.13200565 13.43721787 -15.70445098 12.09843664 -19.125 9.75 C-36.8074899 -1.78616988 -56.75590081 -4.85792238 -77.59960938 -1.59277344 C-87.33115559 0.53114266 -96.85617293 4.5255322 -103 12.625 C-105.96924264 17.63559695 -106.61770387 22.18235261 -106 28 C-104.27833296 32.71193085 -102.20712329 35.28874277 -98 38 C-89.87478011 41.76043234 -81.9862036 42.14644281 -73.15234375 42.2109375 C-70.99803949 42.23902232 -68.84374272 42.26768688 -66.68945312 42.296875 C-63.32169946 42.33794815 -59.95408323 42.37486953 -56.58618164 42.40136719 C-36.87484076 42.56957991 -15.96827492 43.18021987 -1 58 C5.64075867 66.08250233 8.52600676 74.04320135 8.375 84.4375 C8.38660156 85.23220703 8.39820313 86.02691406 8.41015625 86.84570312 C8.35756537 97.61806787 4.26863972 106.17847833 -2.8984375 114.09765625 C-19.33555197 129.95427783 -43.80780315 133.53509191 -65.71313477 133.42333984 C-79.68120855 133.06206478 -93.47182038 130.31008166 -106 124 C-107.39412109 123.32130859 -107.39412109 123.32130859 -108.81640625 122.62890625 C-118.984177 117.4106762 -127.15879396 110.23545663 -135 102 C-133.46356148 98.31930113 -131.21849055 96.01224796 -128.375 93.25 C-127.55773437 92.45078125 -126.74046875 91.6515625 -125.8984375 90.828125 C-125.27195313 90.22484375 -124.64546875 89.6215625 -124 89 C-120.73695882 90.43807408 -118.51277312 92.23738034 -115.9375 94.6875 C-97.05880702 111.71534072 -75.42813086 114.94231425 -50.96289062 114.17919922 C-38.68405709 113.43656047 -24.0696825 109.86775151 -15.4375 100.625 C-11.29268009 95.04966702 -9.36067013 89.19052628 -9.66015625 82.23046875 C-10.53610878 76.48140102 -13.08907388 72.41508629 -17.5625 68.75 C-25.81994285 63.27596625 -34.15507316 61.41060544 -43.94140625 61.49609375 C-44.94856186 61.48667252 -45.95571747 61.47725128 -46.99339294 61.46754456 C-50.18330608 61.43916024 -53.37247176 61.43580356 -56.5625 61.4375 C-80.48037284 61.40992155 -80.48037284 61.40992155 -91.046875 59.671875 C-91.74692154 59.5573851 -92.44696808 59.4428952 -93.16822815 59.32493591 C-102.95790727 57.50263406 -112.14362235 53.12957954 -118.5703125 45.3828125 C-122.77009545 38.38317424 -124.73217922 32.3775806 -124.625 24.1875 C-124.61734619 23.31383789 -124.60969238 22.44017578 -124.60180664 21.54003906 C-124.34201435 13.93354621 -122.44147916 8.24768068 -118 2 C-117.48179687 1.25621094 -116.96359375 0.51242187 -116.4296875 -0.25390625 C-106.90232927 -12.381727 -90.18733337 -18.79594184 -75.30224609 -20.77294922 C-47.61328324 -23.50367408 -22.20828042 -16.80763041 0 0 Z " fill="#FAFAFA" transform="translate(254,909)"/>
<path d="M0 0 C-1.40398279 4.10110762 -3.37087038 6.98089159 -6.125 10.3125 C-6.84945312 11.19550781 -7.57390625 12.07851562 -8.3203125 12.98828125 C-8.87460938 13.65214844 -9.42890625 14.31601563 -10 15 C-11.00804687 14.4225 -12.01609375 13.845 -13.0546875 13.25 C-14.36963856 12.49973159 -15.68474708 11.7497391 -17 11 C-17.87833496 10.49726562 -17.87833496 10.49726562 -18.77441406 9.984375 C-27.25804081 5.16663091 -35.45667285 1.35260293 -45 -1 C-45.7425 -1.19207031 -46.485 -1.38414063 -47.25 -1.58203125 C-64.30728144 -4.1745442 -83.22801557 -2.42230643 -97.80078125 7.1875 C-102.51618432 10.74452862 -105.54143803 14.82749985 -106.3828125 20.6484375 C-106.64181013 26.95071317 -106.0178228 31.07816707 -102 36 C-93.83036244 41.86443509 -83.69779096 42.28338447 -74 42.2734375 C-71.87369281 42.29374265 -69.74739077 42.31459372 -67.62109375 42.3359375 C-64.32173286 42.35838545 -61.02257793 42.37495963 -57.72314453 42.38085938 C-38.05107756 42.43996127 -17.32336344 43.0416099 -2.0625 57.25 C6.67334432 66.6200254 8.49500719 76.22780115 8.2734375 88.59375 C7.77825272 100.00751394 2.8480534 108.31933275 -5.18359375 116.12109375 C-24.10796273 132.55950293 -51.20765328 133.99812517 -75 133 C-94.68781384 131.41917088 -112.13503296 122.72058645 -127.1875 110.3125 C-127.74074951 109.86108643 -128.29399902 109.40967285 -128.86401367 108.94458008 C-132.31393768 105.98897354 -133.22760254 104.43099364 -135 100 C-131.37 96.37 -127.74 92.74 -124 89 C-120.13237435 90.93381282 -118.06157728 92.71248517 -115 95.6875 C-100.02534816 109.67092193 -81.08990838 114.40493503 -61 114.25 C-59.99710937 114.25773437 -58.99421875 114.26546875 -57.9609375 114.2734375 C-43.4634127 114.2359762 -28.46898688 111.3704063 -17 102 C-12.54361586 97.4263426 -9.90723959 92.10152349 -9.5 85.6875 C-9.7388193 80.08957555 -11.69771685 75.49202027 -15 71 C-24.15674439 62.96922056 -33.90653757 61.87899682 -45.62890625 61.75390625 C-47.73763403 61.72094687 -49.84635789 61.6877356 -51.95507812 61.65429688 C-55.25037766 61.6071199 -58.54566375 61.56270185 -61.84106445 61.52319336 C-102.36955389 61.01426353 -102.36955389 61.01426353 -115.76953125 48.32421875 C-122.44182281 41.31480088 -125.17446513 34.41147006 -125.625 24.75 C-125.26552835 13.25850301 -120.68437431 3.463266 -112.69140625 -4.74609375 C-79.7956728 -32.29448011 -32.53049933 -21.68699955 0 0 Z " fill="#FAFAFA" transform="translate(256,1108)"/>
<path d="M0 0 C39.93 0 79.86 0 121 0 C121 5.28 121 10.56 121 16 C70.015 16.495 70.015 16.495 18 17 C17.67 31.85 17.34 46.7 17 62 C51.32 62 85.64 62 121 62 C121 67.61 121 73.22 121 79 C86.68 79 52.36 79 17 79 C17 95.83 17 112.66 17 130 C51.98 130 86.96 130 123 130 C123 135.61 123 141.22 123 147 C82.41 147 41.82 147 0 147 C0 98.49 0 49.98 0 0 Z " fill="#FBFBFB" transform="translate(858,1091)"/>
<path d="M0 0 C2.75444795 2.16749734 5.32522889 4.41980577 7.8671875 6.83203125 C8.64449219 7.56808594 9.42179688 8.30414062 10.22265625 9.0625 C19.23763592 18.32574073 25.94707179 30.23503572 28.8671875 42.83203125 C29.21394531 43.8684375 29.56070313 44.90484375 29.91796875 45.97265625 C31.09034768 50.73936566 31.16947687 55.13201277 31.1171875 60.01953125 C31.10377319 61.42271606 31.10377319 61.42271606 31.09008789 62.85424805 C30.73938137 83.79669682 22.96366694 101.23801623 8.6796875 116.58203125 C-0.14428146 124.94481716 -10.75197289 130.73170038 -22.1328125 134.83203125 C-22.96941406 135.13882812 -23.80601562 135.445625 -24.66796875 135.76171875 C-42.69722919 142.08249453 -64.30305151 140.07527423 -81.52075195 132.09545898 C-101.2458835 122.34215094 -115.84971519 107.82111484 -123.1328125 86.83203125 C-124.23319402 83.52163978 -125.26600639 80.2114037 -126.1328125 76.83203125 C-126.31714844 76.11660156 -126.50148438 75.40117188 -126.69140625 74.6640625 C-129.93622528 53.84553333 -124.88222243 33.86841576 -112.9296875 16.66015625 C-85.65542016 -17.8618185 -36.12585534 -24.99981261 0 0 Z M-95.9453125 23.83203125 C-107.97314169 38.29372705 -110.71895319 53.48740413 -109.1328125 71.83203125 C-106.83042415 86.14637496 -99.26491186 98.62274905 -88.1328125 107.83203125 C-71.80247382 119.47879564 -54.73505787 123.21647638 -34.91601562 120.53173828 C-21.77675768 117.95573491 -11.47186148 111.13808006 -2.1328125 101.83203125 C-1.56820312 101.290625 -1.00359375 100.74921875 -0.421875 100.19140625 C8.72971211 90.60402928 13.83389316 76.16493716 14.3046875 63.14453125 C13.86388265 45.66566083 7.42404622 31.03429429 -5.1328125 18.83203125 C-19.1964752 6.17473482 -35.45161847 2.00939157 -54.06494141 2.70019531 C-70.70482895 3.76106181 -84.84317057 11.62924594 -95.9453125 23.83203125 Z " fill="#FBFBFB" transform="translate(601.1328125,1102.16796875)"/>
<path d="M0 0 C5.94 0 11.88 0 18 0 C18 20.46 18 40.92 18 62 C49.02 62 80.04 62 112 62 C112 41.54 112 21.08 112 0 C117.61 0 123.22 0 129 0 C129 48.51 129 97.02 129 147 C123.39 147 117.78 147 112 147 C112 124.56 112 102.12 112 79 C80.98 79 49.96 79 18 79 C18 101.77 18 124.54 18 148 C12.06 148 6.12 148 0 148 C0 99.16 0 50.32 0 0 Z " fill="#FBFBFB" transform="translate(668,692)"/>
<path d="M0 0 C5.61 0 11.22 0 17 0 C17 20.13 17 40.26 17 61 C48.35 61 79.7 61 112 61 C112 40.87 112 20.74 112 0 C117.61 0 123.22 0 129 0 C129 48.18 129 96.36 129 146 C123.39 146 117.78 146 112 146 C112 123.56 112 101.12 112 78 C80.98 78.33 49.96 78.66 18 79 C17.67 101.11 17.34 123.22 17 146 C11.39 146 5.78 146 0 146 C0 97.82 0 49.64 0 0 Z " fill="#FEFEFE" transform="translate(307,892)"/>
<path d="M0 0 C18.06679034 -0.12032643 18.06679034 -0.12032643 25.81640625 -0.14648438 C31.08749545 -0.16436118 36.3584271 -0.18542292 41.62939453 -0.22631836 C45.88286685 -0.25910985 50.13617001 -0.2768944 54.38975906 -0.28463173 C56.00593348 -0.29013995 57.62209949 -0.30089542 59.23820114 -0.31719017 C71.80475745 -0.43876246 82.34028037 0.16761747 92 9 C97.64113733 15.08649028 98.45927773 20.53642303 98.3125 28.63671875 C97.73205901 34.88371487 95.94691003 40.63744321 91.1875 44.9375 C83.16676084 50.12739004 75.82141143 51.12960925 66.41235352 51.11352539 C65.68956711 51.11367142 64.9667807 51.11381744 64.22209167 51.1139679 C61.85766489 51.11327699 59.4933191 51.10552352 57.12890625 51.09765625 C55.47981306 51.09578914 53.83071931 51.09436662 52.18162537 51.09336853 C47.85965419 51.0895664 43.53771708 51.07975597 39.21575928 51.06866455 C34.02024286 51.05659335 28.82471499 51.05203721 23.62918854 51.04621124 C15.75276873 51.03654283 7.87642354 51.01737021 0 51 C0 34.17 0 17.34 0 0 Z " fill="#050608" transform="translate(694,1108)"/>
<path d="M0 0 C44.55 0 89.1 0 135 0 C135 5.94 135 11.88 135 18 C115.53 18 96.06 18 76 18 C76 60.9 76 103.8 76 148 C70.39 148 64.78 148 59 148 C59 105.1 59 62.2 59 18 C39.53 18 20.06 18 0 18 C0 12.06 0 6.12 0 0 Z " fill="#FAFAFA" transform="translate(305,1090)"/>
<path d="M0 0 C44.55 0 89.1 0 135 0 C135 5.94 135 11.88 135 18 C115.53 18 96.06 18 76 18 C76 60.57 76 103.14 76 147 C70.39 147 64.78 147 59 147 C59 104.43 59 61.86 59 18 C39.53 18 20.06 18 0 18 C0 12.06 0 6.12 0 0 Z " fill="#FBFBFB" transform="translate(490,692)"/>
<path d="M0 0 C40.26 0 80.52 0 122 0 C122 5.94 122 11.88 122 18 C81.74 18 41.48 18 0 18 C0 12.06 0 6.12 0 0 Z " fill="#F9F9F9" transform="translate(858,954)"/>
<path d="M0 0 C40.26 0 80.52 0 122 0 C122 5.94 122 11.88 122 18 C81.74 18 41.48 18 0 18 C0 12.06 0 6.12 0 0 Z " fill="#F9F9F9" transform="translate(858,892)"/>
<path d="M0 0 C39.6 0 79.2 0 120 0 C120 5.94 120 11.88 120 18 C80.4 18 40.8 18 0 18 C0 12.06 0 6.12 0 0 Z " fill="#FEFEFE" transform="translate(859,1021)"/>
<path d="M0 0 C0.66 0 1.32 0 2 0 C7.01824179 10.95863518 12.02970867 21.9203456 17.03436279 32.88519287 C17.90255375 34.78658649 18.77176884 36.6875124 19.64111328 38.58837891 C20.93127315 41.41134948 22.21675552 44.236381 23.5 47.0625 C23.86665771 47.86268555 24.23331543 48.66287109 24.61108398 49.48730469 C27 54.7696283 27 54.7696283 27 57 C9.51 57 -7.98 57 -26 57 C-24.12747306 51.38241917 -22.50694753 46.63559401 -19.9609375 41.4453125 C-19.38424316 40.26155029 -18.80754883 39.07778809 -18.21337891 37.8581543 C-17.60062992 36.61374787 -16.98783617 35.36936349 -16.375 34.125 C-15.43203956 32.19467743 -14.49102777 30.26341231 -13.55001831 28.33213806 C-12.92480772 27.04947562 -12.29893673 25.76713485 -11.6723938 24.48512268 C-8.9468474 18.90620636 -6.27415592 13.30309575 -3.625 7.6875 C-3.25036621 6.89424316 -2.87573242 6.10098633 -2.48974609 5.28369141 C-1.65882331 3.522936 -0.82922535 1.76155545 0 0 Z " fill="#090B0C" transform="translate(554,914)"/>
</svg>
